<?xml version="1.0" encoding="UTF-8" standalone="no"?>
<!-- Created with Inkscape (http://www.inkscape.org/) -->

<svg
   version="1.1"
   id="svg1"
   width="1120"
   height="630"
   viewBox="0 0 1120 630"
   sodipodi:docname="kisspng-lion-of-judah-vector-graphics-clip-art-rastafari-esther-oliveira-vetores-5cd925992a5eb9.4692485415577348091736.png"
   xmlns:inkscape="http://www.inkscape.org/namespaces/inkscape"
   xmlns:sodipodi="http://sodipodi.sourceforge.net/DTD/sodipodi-0.dtd"
   xmlns="http://www.w3.org/2000/svg"
   xmlns:svg="http://www.w3.org/2000/svg">
  <defs
     id="defs1" />
  <sodipodi:namedview
     id="namedview1"
     pagecolor="#ffffff"
     bordercolor="#000000"
     borderopacity="0.25"
     inkscape:showpageshadow="2"
     inkscape:pageopacity="0.0"
     inkscape:pagecheckerboard="0"
     inkscape:deskcolor="#d1d1d1" />
  <g
     inkscape:groupmode="layer"
     inkscape:label="Image"
     id="g1">
    <path
       style="fill:#000000"
       d="m 460.43792,624.89959 c -20.20926,-25.18412 -29.01851,-57.93834 -25.95105,-96.49024 0.64592,-8.11787 1.883,-17.45976 2.74907,-20.75976 3.68983,-14.05934 9.08275,-28.87216 15.05911,-41.36315 7.14985,-14.94365 25.38407,-46.27674 26.52154,-45.57375 1.36237,0.842 7.89789,13.24503 7.89789,14.98854 0,0.94967 -1.32679,6.05155 -2.94843,11.33752 -14.13882,46.08761 -18.51345,79.80206 -18.53695,142.86084 -0.008,21.5875 -0.32199,39.25 -0.69767,39.25 -0.37568,0 -2.21776,-1.9125 -4.09351,-4.25 z m 158.58629,-8 c 1.13246,-16.48172 0.23867,-56.91705 -1.77386,-80.25 -2.84607,-32.99681 -6.66195,-53.93528 -15.21724,-83.5 -2.46692,-8.525 -4.50406,-16.45051 -4.52697,-17.61225 -0.0473,-2.39614 6.16478,-13.5399 7.86339,-14.1061 1.26599,-0.422 17.4183,26.77894 25.78308,43.41942 11.0561,21.99447 17.06028,42.96227 18.46334,64.47775 1.56247,23.96 -1.68508,48.45807 -8.76896,66.14922 -4.91321,12.27016 -18.59133,33.67196 -21.52011,33.67196 -0.84269,0 -0.92248,-3.22934 -0.30267,-12.25 z m 49.18094,-12.02664 c 3.91499,-16.88861 5.8474,-35.44494 4.96365,-47.6643 -3.57647,-49.45059 -22.1151,-96.32581 -58.95123,-149.05906 l -6.6361,-9.5 3.7769,-3 c 13.65682,-10.84766 16.55573,-15.30202 18.41307,-28.2929 0.65212,-4.56109 1.60024,-8.1547 2.10694,-7.9858 1.82059,0.60686 22.13691,25.46669 28.01376,34.2787 15.04575,22.56029 26.39917,52.01492 31.99271,83 2.51683,13.94186 3.63686,51.53798 1.95916,65.76343 -1.33591,11.32738 -5.9037,29.67872 -10.03636,40.32165 -4.64486,11.96201 -17.45796,30.14243 -15.6025,22.13828 z m -257.80869,-3.47546 c -8.46795,-11.53565 -16.08661,-32.4592 -19.24238,-52.84638 -2.28179,-14.74109 -2.27261,-48.35139 0.0177,-64.90152 5.20027,-37.57737 19.64755,-73.42028 40.31357,-100.01573 10.66755,-13.72826 20.24085,-24.59504 21.16454,-24.02417 0.45694,0.28241 1.13854,3.10692 1.51467,6.27668 1.57596,13.28118 4.87767,19.07985 15.43266,27.10389 l 7.02524,5.34067 -10.76774,16.15933 c -17.53354,26.31294 -25.95601,41.15476 -34.42304,60.65933 -8.92532,20.56029 -13.72422,36.38171 -17.89567,59 -3.19483,17.32295 -3.18181,45.64553 0.0278,60.36008 1.18288,5.42304 2.1507,10.26054 2.1507,10.75 0,2.07342 -2.05807,0.57876 -5.31802,-3.86218 z m 104.71806,-5.09546 c -18.29639,-13.35886 -26.8274,-35.72924 -26.75285,-70.15244 0.0356,-16.44524 2.01677,-35.73616 5.44303,-53 2.3131,-11.65493 7.69773,-29 9.00281,-29 0.46225,0 0.56983,7.9875 0.23906,17.75 -0.5956,17.5792 0.74844,50.38567 2.77564,67.75 1.93141,16.54373 10.69966,55.97259 14.90985,67.04624 1.27971,3.3659 -0.65388,3.23035 -5.61754,-0.3938 z m 47.59996,2.30187 c 0,-0.30013 1.11586,-4.01263 2.47969,-8.25 5.45164,-16.93809 11.73822,-47.40783 13.45308,-65.20431 1.86711,-19.37653 1.98466,-22.39071 2.02602,-51.95 0.0249,-17.78268 0.40278,-29.07363 0.95386,-28.5 1.5081,1.56982 7.91055,23.34195 9.54246,32.45 4.51485,25.1985 5.84887,57.72296 2.99987,73.13953 -3.10804,16.81829 -9.12359,30.69725 -16.76959,38.69054 -5.79933,6.06273 -14.68539,11.88631 -14.68539,9.62424 z M 539.6901,561.61601 c -3.73202,-8.66583 -6.78839,-18.6986 -8.36734,-27.46642 -2.58041,-14.32893 -7.23636,-80.19967 -5.9126,-83.64934 0.4355,-1.13488 3.58358,-1.34731 16.6706,-1.12487 l 16.13372,0.27421 -0.27983,17 c -0.36197,21.99021 -3.72057,61.61001 -6.15129,72.56377 -1.7591,7.92719 -6.82519,22.48309 -9.01525,25.90265 -0.72425,1.13084 -1.42861,0.32992 -3.07801,-3.5 z M 358.63265,549.64959 c -15.52851,-24.0581 -29.91167,-56.41512 -35.78341,-80.5 -3.92332,-16.09282 -5.13571,-26.2475 -5.13074,-42.97377 0.0112,-37.72016 12.17735,-65.88579 39.80096,-92.14262 11.82632,-11.24117 57.75459,-49.38361 59.46404,-49.38361 1.31649,0 9.53307,18.74754 9.65535,22.03033 0.0518,1.39039 -2.79038,4.38178 -9.01733,9.49077 -11.81139,9.69083 -30.74031,29.21328 -38.76342,39.9789 -19.78531,26.54843 -31.40053,55.04556 -34.11849,83.7073 -1.26063,13.29377 -1.35015,31.04551 -0.14998,29.7427 0.48133,-0.5225 1.39974,-5.17403 2.04091,-10.33673 2.48619,-20.01886 8.86443,-41.38798 18.23822,-61.10382 13.74706,-28.9141 30.25467,-50.02943 54.29865,-69.45483 9.84413,-7.95318 14.66525,-10.83024 16.78521,-10.01673 1.82161,0.69901 12.22976,21.90074 12.03307,24.51175 -0.14528,1.92865 -7.37502,10.91611 -27.71273,34.45036 -26.49533,30.65967 -43.79843,66.45662 -52.9288,109.5 -3.62092,17.07011 -4.72132,26.66046 -5.46151,47.59882 l -0.66817,18.90118 z m 364.03552,3.45 c -0.0255,-0.2475 -0.45709,-10.575 -0.95915,-22.95 -2.05252,-50.59064 -15.99103,-93.94949 -42.75534,-133 -7.10278,-10.36333 -9.09993,-12.82533 -29.4892,-36.35315 -7.5625,-8.7266 -13.74587,-16.60461 -13.74082,-17.5067 0.0151,-2.69835 10.77127,-24.11867 12.43094,-24.75555 2.15927,-0.82859 9.18308,3.53041 19.35276,12.01039 37.23951,31.05214 62.31525,76.78734 69.65661,127.04548 0.87896,6.01725 1.86543,11.19225 2.19215,11.5 0.32672,0.30774 0.35637,-8.21547 0.0659,-18.94047 -0.40474,-14.94348 -1.00227,-21.36934 -2.55717,-27.5 -10.2914,-40.57688 -32.45308,-74.4796 -68.65158,-105.02246 -6.32433,-5.33622 -11.49879,-9.87439 -11.49879,-10.08481 0,-1.51831 9.38238,-23.39273 10.03362,-23.39273 2.27537,0 52.25544,42.53867 65.35228,55.62215 16.70667,16.68962 27.08893,36.16444 32.31321,60.61245 2.15446,10.08217 2.40805,39.03233 0.44906,51.2654 -3.15603,19.70811 -12.43524,48.16953 -21.73202,66.65696 -6.4468,12.82001 -20.29971,36.3746 -20.46246,34.79304 z m -441.28974,-124.7 c -0.59837,-0.98831 -4.17241,-18.6369 -5.8222,-28.75 -0.79921,-4.89915 -1.29478,-16.52735 -1.27852,-30 0.0245,-20.32472 0.23789,-22.95186 2.80209,-34.5 5.46517,-24.61292 13.74061,-39.89909 31.13468,-57.5111 16.56016,-16.76765 34.53254,-28.8347 75.85269,-50.92916 13.11898,-7.0149 24.20212,-12.37307 24.6292,-11.90705 0.42708,0.46602 1.34271,2.64731 2.03473,4.84731 1.84652,5.87025 6.33537,14.44372 9.90391,18.91594 4.24397,5.31869 4.54241,7.27171 2.10622,13.78301 -4.09838,10.95391 -6.24221,13.06173 -44.52675,43.77887 -24.7679,19.87223 -42.32904,36.20548 -54.32032,50.52218 -19.66519,23.47879 -34.84222,52.95862 -39.2556,76.25 -1.08773,5.74042 -2.09041,7.43199 -3.26013,5.5 z m 519.02248,0 c -0.23738,-0.4125 -0.75321,-3 -1.14628,-5.75 -2.06747,-14.46436 -11.70208,-36.84267 -23.76663,-55.20275 -17.60835,-26.79676 -33.92378,-43.15166 -77.86321,-78.05154 -25.01865,-19.87163 -32.78189,-27.6138 -35.81338,-35.71619 -2.8308,-7.56599 -2.66296,-9.5006 1.27123,-14.65306 3.72518,-4.87872 8.69884,-14.34492 10.56737,-20.11253 0.66571,-2.05484 1.58642,-3.96848 2.04603,-4.25254 1.03249,-0.63811 40.09979,20.09879 56.80562,30.15239 48.49057,29.18171 67.0765,52.52223 75.38608,94.67109 2.60082,13.19217 3.04771,40.83332 0.91615,56.66513 -1.21805,9.04682 -4.58858,27.51936 -5.70193,31.25 -0.53819,1.8034 -1.94005,2.3224 -2.70105,1 z m -307.39514,-11.5 c -4.85326,-5.30774 -6.62854,-13.10257 -4.3494,-19.09715 l 0.94188,-2.47734 7.80812,2.49738 c 9.00421,2.87996 13.71725,2.66104 21.72702,-1.00919 4.72872,-2.16679 16.48517,-10.98627 19.33109,-14.50183 0.81655,-1.00869 1.25,-5.06511 1.25,-11.69801 0,-8.40189 -0.30195,-10.42646 -1.75,-11.73365 -0.9625,-0.86886 -10.13898,-5.64449 -20.39219,-10.6125 -15.42805,-7.4754 -18.99794,-9.60838 -20.70559,-12.37141 -2.08888,-3.37989 -4.00736,-11.7463 -2.69351,-11.7463 0.39289,0 2.71532,1.437 5.16098,3.19334 3.84202,2.75913 5.5639,3.2794 12.66347,3.82633 4.91806,0.37887 11.42856,1.75077 16.21684,3.41723 10.31833,3.59107 20.61561,3.32571 30.21987,-0.77877 4.62522,-1.97664 7.90428,-2.65813 12.78984,-2.65813 6.71594,0 12.6611,-2.09103 15.42963,-5.42691 1.74381,-2.10116 4.06304,-1.99987 4.05089,0.17691 -0.0144,2.58379 -4.41548,11.5007 -6.5985,13.36911 -1.04045,0.8905 -10.11508,5.58039 -20.16584,10.42196 -13.86141,6.67721 -18.37493,9.30464 -18.69166,10.88089 -0.22966,1.14292 -0.62593,6.12647 -0.88061,11.07456 l -0.46306,8.99651 4.65472,4.30947 c 9.64832,8.93267 21.49198,15.1975 28.73089,15.1975 1.21724,0 5.22897,-0.93149 8.91495,-2.06997 3.68599,-1.13849 7.28855,-1.84482 8.00568,-1.56963 3.42456,1.31412 2.51784,13.53536 -1.34582,18.1396 -4.25612,5.07192 -4.74844,5.08518 -10.4004,0.28002 -14.72887,-12.52213 -23.30659,-16.00362 -39.75058,-16.1338 -16.90727,-0.13384 -26.50021,3.55015 -40.17104,15.42695 -3.11908,2.70976 -6.07814,4.92683 -6.57569,4.92683 -0.49755,0 -1.83045,-1.0125 -2.96198,-2.25 z m 84.30984,-37.16414 c -10.04027,-4.22726 -10.43507,-6.67276 -0.74529,-4.61645 5.125,1.0876 18.16789,1.01709 23.14416,-0.12511 3.44755,-0.79132 2.00621,1.82537 -2.16673,3.9336 -6.97615,3.52444 -13.1907,3.77262 -20.23214,0.80796 z m -96.85316,-15.94147 c -7.8895,-2.96507 -15.55257,-11.10968 -19.64051,-20.87468 -2.47992,-5.92389 -0.93377,-7.4208 2.74034,-2.65306 6.22062,8.07227 12.4727,13.77497 17.45041,15.91701 4.79779,2.06461 6.01727,2.17477 15.70179,1.41835 15.26705,-1.19246 19.5502,-0.89293 24.79203,1.73379 7.69456,3.8558 6.69336,4.76758 -4.97108,4.52704 -5.67652,-0.11706 -15.27095,0.13692 -21.32095,0.56441 -8.54414,0.60372 -11.83768,0.46242 -14.75203,-0.63286 z m 4.20479,-12.00074 c -7.83044,-2.80032 -18.95276,-12.94902 -18.95276,-17.29369 0,-2.18888 1.13364,-1.61955 8.36452,4.2008 8.20191,6.60194 12.30658,8.77417 19.63548,10.39128 8.43236,1.86059 8.72245,1.98942 6.97197,3.09644 -2.11179,1.33552 -11.85199,1.09545 -16.01921,-0.39483 z m 0.0472,-43.74141 c 0,-0.7871 2.02804,-7.9496 4.50675,-15.91666 2.47872,-7.96707 5.17872,-18.02279 6,-22.34605 1.50729,-7.9344 1.98423,-17.81522 0.91169,-18.88776 -0.31986,-0.31986 -2.10541,0.0551 -3.96788,0.83334 -4.41657,1.84535 -4.56901,1.81381 -4.03549,-0.83511 1.22885,-6.10118 1.38487,-8.45567 0.64016,-9.66064 -0.48499,-0.78473 -4.06883,-1.64462 -8.87295,-2.12892 -11.31425,-1.1406 -21.18228,-5.76395 -21.18228,-9.9243 0,-0.90963 -0.5625,-2.40682 -1.25,-3.32707 -1.11665,-1.4947 -1.73006,-1.52976 -5.75,-0.32873 -5.02356,1.50089 -9.29799,0.4055 -8.78627,-2.25161 0.16043,-0.83309 6.06449,-5.05071 13.12011,-9.3725 12.33364,-7.55472 12.95974,-7.81444 16.23336,-6.73405 5.00965,1.65333 5.20292,2.95415 0.96727,6.5102 -2.60212,2.18461 -3.41524,3.42327 -2.58432,3.93681 0.70632,0.43653 2.32631,-0.25634 3.88111,-1.65996 5.60928,-5.06387 6.10474,-5.27901 7.56341,-3.28417 0.73268,1.00201 4.85052,2.98128 9.15076,4.39839 5.29016,1.74332 8.39989,3.38502 9.61609,5.07655 2.72907,3.79565 4.85002,19.0953 3.67015,26.47481 -2.84263,17.77914 -4.27507,22.91978 -11.38286,40.85003 -7.74476,19.53707 -8.44881,21.08514 -8.44881,18.5774 z M 597.8201,305.3567 c -7.23746,-14.18659 -15.55147,-39.55812 -17.10879,-52.21024 -1.40172,-11.38789 -1.40201,-11.18633 0.0295,-20.82933 1.68594,-11.35673 3.67713,-13.5367 14.73942,-16.13688 3.19381,-0.75071 5.84489,-2.06447 6.73747,-3.3388 l 1.47165,-2.10108 2.76253,2.21001 c 5.39686,4.31746 7.33403,5.46102 8.04375,4.74842 0.39533,-0.39694 -0.96871,-2.07654 -3.03121,-3.73245 -2.0625,-1.65591 -3.75,-3.34876 -3.75,-3.76188 0,-0.41312 1.77145,-1.54995 3.93657,-2.52628 l 3.93656,-1.77514 13.49688,8.31338 c 11.27287,6.9435 13.34828,8.59102 12.5951,9.99835 -1.30236,2.43348 -4.12986,2.86713 -8.57419,1.31503 -4.65313,-1.62503 -6.3909,-1.17221 -6.3909,1.66532 0,5.18866 -12.29165,11.9406 -21.78751,11.96811 -2.59187,0.008 -5.78121,0.2997 -7.08742,0.6493 -2.25692,0.60407 -2.34959,0.9512 -1.86515,6.98635 0.28038,3.49289 0.32214,6.3507 0.0928,6.3507 -0.22933,0 -1.933,-0.63344 -3.78593,-1.40764 -3.30093,-1.37922 -3.37923,-1.35398 -3.87758,1.25 -1.22389,6.39496 1.44977,21.4764 6.81528,38.44332 2.97888,9.41986 5.24039,17.30277 5.02558,17.51757 -0.21481,0.21481 -1.3058,-1.40345 -2.42442,-3.59614 z m -338.49201,1.07321 c -1.13176,-1.13176 -0.63145,-4.98802 2.32531,-17.92312 3.916,-17.13154 7.21419,-26.87131 13.04057,-38.50969 13.16157,-26.29069 29.98908,-45.07828 54.00262,-60.29289 18.62492,-11.80046 32.11945,-17.7417 64.51785,-28.40526 43.93299,-14.46004 67.30224,-24.16917 84,-34.89916 31.84537,-20.46383 56.76609,-57.247243 62.49942,-92.250203 0.67565,-4.125 1.57484,-8.13802 1.9982,-8.91784 0.82947,-1.52785 1.04036,-0.7762 3.05089,10.87366 3.97046,23.00659 17.66463,48.85785 36.45569,68.819503 21.56348,22.90678 43.56074,34.29939 107.54469,55.69855 33.92659,11.3466 43.88701,15.42908 58.20968,23.85842 36.97317,21.75987 59.60144,49.9998 71.6801,89.45628 4.54995,14.86299 7.4135,32.22532 5.31133,32.20373 -0.4125,-0.004 -1.76296,-1.78168 -3.00101,-3.94988 -3.45148,-6.04453 -17.83489,-23.71966 -25.70345,-31.5858 -18.17511,-18.16954 -44.85758,-35.70365 -74.54554,-48.98684 -5.775,-2.58389 -18.6,-8.07315 -28.5,-12.19836 -9.9,-4.12521 -20.5875,-8.80534 -23.75,-10.40029 l -5.75,-2.89992 v 4.51439 c 0,2.94529 -0.43447,4.51412 -1.25,4.51359 -1.60087,-10e-4 -10.42395,-3.3398 -11.39685,-4.3127 -0.40633,-0.40634 1.93548,-3.4753 5.20403,-6.81992 l 5.94282,-6.08112 -11.37708,0.6998 -11.37708,0.69979 0.49532,-2.84252 c 0.27243,-1.56338 1.32071,-4.96392 2.32952,-7.55675 1.00881,-2.59282 1.61792,-4.93051 1.35357,-5.19485 -0.26434,-0.26435 -4.63044,-0.5646 -9.70244,-0.66722 -10.55631,-0.21359 -10.04364,0.45944 -8.10966,-10.6463 0.61168,-3.51254 0.89398,-6.6046 0.62733,-6.87125 -0.26665,-0.26665 -3.52069,0.65788 -7.23121,2.05452 -3.71051,1.39663 -7.30752,2.53933 -7.99334,2.53933 -0.68582,0 -2.20593,-2.5875 -3.37801,-5.75 -2.39116,-6.4518 -10.71724,-18.25 -12.87916,-18.25 -0.77532,0 -4.04131,2.025 -7.25776,4.5 -3.21645,2.475 -6.27617,4.5 -6.79938,4.5 -0.5232,0 -2.80502,-3.86329 -5.0707,-8.58509 -2.26567,-4.72179 -4.52457,-8.43429 -5.01976,-8.25 -0.4952,0.1843 -3.61781,4.00998 -6.93913,8.50151 -5.70472,7.71466 -17.70016,18.33358 -20.71015,18.33358 -1.68397,0 -12.22854,-7.94639 -16.08242,-12.11972 -1.71684,-1.85915 -5.20104,-6.27828 -7.74267,-9.82029 l -4.62112,-6.44 -4.19765,9.19 c -2.30871,5.05451 -4.70835,9.19001 -5.33255,9.19001 -0.62419,0 -3.74269,-2.025 -6.93,-4.5 -3.18731,-2.475 -6.40139,-4.5 -7.14239,-4.5 -2.00456,0 -8.94055,9.68343 -12.39841,17.30957 -1.66847,3.67974 -3.46883,6.69043 -4.0008,6.69043 -0.53197,0 -3.97163,-1.13086 -7.64369,-2.51302 -3.67206,-1.38216 -6.90191,-2.28759 -7.17743,-2.01206 -0.27553,0.27553 -0.0133,3.97604 0.58267,8.22335 0.59599,4.24732 0.86401,8.07775 0.59559,8.51206 -0.26843,0.43432 -4.48493,0.78967 -9.37001,0.78967 -4.88508,0 -9.09163,0.33924 -9.34788,0.75386 -0.25625,0.41462 0.62687,3.43986 1.9625,6.72275 1.33562,3.28289 2.20913,6.54031 1.94113,7.23872 -0.37336,0.97293 -2.95023,1.11913 -11.02152,0.62528 -6.06765,-0.37125 -10.53765,-0.2621 -10.5423,0.25742 -0.004,0.49609 2.55203,3.273 5.68105,6.17092 3.34672,3.09955 5.30578,5.61815 4.75807,6.11708 -1.1337,1.03274 -10.24898,4.11397 -12.17046,4.11397 -1.07199,0 -1.23177,-1.0094 -0.71027,-4.48702 l 0.67288,-4.48703 -10.3616,4.80491 c -5.69888,2.6427 -17.5616,7.68199 -26.3616,11.19843 -8.8,3.51643 -23.65,10.24577 -33,14.95407 -42.47837,21.39049 -65.52614,40.79997 -88.71863,74.71363 -1.95474,2.85834 -3.83021,4.92084 -4.16772,4.58333 z m 31.9539,-123.03032 c 5.72406,-25.99026 16.98453,-46.80871 32.2051,-59.54105 6.96643,-5.82758 14.81441,-9.76082 26.72735,-13.39517 l 9,-2.74568 48.5,-0.16215 c 42.09204,-0.14072 49.49092,-0.39136 56,-1.89702 9.15012,-2.11657 19.51649,-6.784383 27.4163,-12.345123 3.25397,-2.29049 6.12954,-3.9513 6.39016,-3.69068 0.74784,0.74784 -7.67777,11.512013 -13.44047,17.170933 -2.88112,2.82923 -8.97961,7.61826 -13.55219,10.64229 -17.64439,11.66892 -34.67367,18.38329 -58.8138,23.18935 -46.86198,9.32974 -81.38002,21.74876 -109.4024,39.36118 -5.39324,3.38971 -10.2176,6.16312 -10.7208,6.16312 -0.5032,0 -0.64236,-1.2375 -0.30925,-2.75 z m 487.05057,-5.31749 c -27.70673,-16.82417 -55.88886,-26.92928 -101.60935,-36.4335 -9.07982,-1.88748 -19.43377,-4.28484 -23.00877,-5.32746 -21.8492,-6.37213 -44.89886,-19.60403 -56.70711,-32.5533 -5.37919,-5.898973 -10.81292,-13.431553 -10.16003,-14.084443 0.23649,-0.23649 4.34384,2.22565 9.12745,5.47141 9.00456,6.109743 16.41893,9.007343 28.57918,11.168983 4.42637,0.78685 22.25801,1.22261 53.16051,1.29911 44.65897,0.11056 46.81674,0.20239 54.5,2.31931 23.54564,6.4874 39.31421,20.11457 50.57563,43.70738 6.01989,12.61173 11.7395,32.79686 9.17437,32.37734 -0.4125,-0.0675 -6.54685,-3.64264 -13.63188,-7.94483 z M 340.71448,104.51049 c 0,-1.03145 10.69013,-12.910843 18.90662,-21.009963 15.95698,-15.72904 31.80349,-23.35094 48.54837,-23.35094 7.29885,0 14.10781,2.26551 28.53085,9.49291 16.04627,8.0408 27.03723,11.89169 40.08316,14.04389 5.73705,0.94645 10.5809,1.85025 10.76411,2.00845 0.68377,0.59043 -9.62285,4.67137 -17.83311,7.06109 -15.16173,4.41305 -32.75089,4.19649 -52.57223,-0.64729 -7.60631,-1.85877 -10.77798,-2.10379 -21.42777,-1.65539 -13.98806,0.58897 -22.31526,2.63206 -41.83522,10.264303 -11.40695,4.46009 -13.16478,4.96654 -13.16478,3.79294 z m 389.31917,-3.92455 c -17.25398,-6.848533 -28.08745,-9.507033 -41.31917,-10.139593 -10.18914,-0.4871 -12.98184,-0.22468 -24.5,2.30221 -11.06034,2.42645 -15.16346,2.84596 -27.5,2.81164 -14.36614,-0.04 -14.60988,-0.0785 -26.40222,-4.17769 -13.56829,-4.71651 -15.39571,-5.86632 -10.47803,-6.59274 21.21021,-3.13308 25.98189,-4.66521 47.40569,-15.22149 16.54313,-8.15138 23.17285,-9.95098 33.53662,-9.10329 16.38825,1.34044 28.9977,8.55312 47.58097,27.21657 13.21202,13.269043 16.67332,17.528973 14.14215,17.405183 -0.70685,-0.0346 -6.31655,-2.05993 -12.46601,-4.5008 z M 501.23963,78.468747 c -3.01448,-20.10201 -14.87205,-40.14739 -37.78747,-63.88025 -7.70284,-7.9776098 -13.83248,-14.64569984 -13.62142,-14.81796984 0.21106,-0.17227 4.65874,0.74059 9.88374,2.02856004 11.95722,2.94749 21.74832,7.74062 29.70958,14.5440198 13.16185,11.24762 16.90687,18.99235 17.89731,37.01168 0.52816,9.60902 0.29288,12.67539 -1.57635,20.5448 -1.20845,5.0875 -2.55859,9.25 -3.00031,9.25 -0.44173,0 -1.11901,-2.10638 -1.50508,-4.68084 z m 77.98873,-0.31916 c -2.29746,-7.23632 -3.16534,-26.99249 -1.54981,-35.27948 0.66697,-3.42128 2.59568,-8.82692 4.28602,-12.01252 4.69211,-8.84274 18.86551,-20.9695998 29.46546,-25.2108598 5.98695,-2.3955 22.28445,-6.24197004 22.28445,-5.25948004 0,0.46612 -5.37648,6.34083004 -11.94772,13.05491984 -22.23848,22.72186 -33.36112,40.11756 -37.53697,58.70742 -2.69633,12.00342 -2.98533,12.35012 -5.00143,6 z m 26.03881,-3.13993 c 6.75234,-13.2071 17.88348,-26.30322 27.90769,-32.83425 18.12957,-11.81189 33.55007,-10.42816 55.37223,4.9687 4.03293,2.84548 7.12766,5.37855 6.87716,5.62905 -0.25049,0.25049 -3.55017,-0.0499 -7.33261,-0.6675 -13.41071,-2.18977 -32.733,1.24574 -51.11166,9.08768 -7.70228,3.28647 -20.65082,9.92148 -32.5981,16.70373 -0.45792,0.25996 -0.0595,-1.03938 0.88529,-2.88741 z m -145.55269,-7.47682 c -20.14266,-10.22284 -30.2444,-13.66157 -45.71943,-15.56333 -7.1815,-0.88256 -11.21819,-0.87726 -17.00452,0.0223 -4.17315,0.64878 -7.78619,0.98095 -8.02898,0.73816 -0.2428,-0.2428 2.41479,-2.54626 5.90574,-5.11881 13.08208,-9.64042 25.69039,-14.18098 36.29899,-13.07216 11.5472,1.20692 26.15869,10.2915 35.50285,22.07364 4.32656,5.4554 13.04535,18.85874 13.04535,20.05454 0,0.93199 -1.65494,0.17615 -20,-9.13437 z"
       id="path1" />
  </g>
</svg>
